<svg xmlns="http://www.w3.org/2000/svg" xmlns:xlink="http://www.w3.org/1999/xlink" width="1920" zoomAndPan="magnify" viewBox="0 0 1440 809.999993" height="1080" preserveAspectRatio="xMidYMid meet" version="1.0"><rect x="-144" width="1728" fill="#ffffff" y="-80.999999" height="971.999992" fill-opacity="1"/><rect x="-144" width="1728" fill="#000000" y="-80.999999" height="971.999992" fill-opacity="1"/><path fill="#ffffff" d="M 302.222656 301.746094 L 341.785156 301.746094 C 343.835938 301.746094 345.285156 302.351562 346.128906 303.558594 C 346.980469 304.769531 346.917969 306.355469 345.941406 308.324219 L 254.066406 507.777344 C 252.273438 511.621094 250.035156 513.542969 247.347656 513.542969 C 244.667969 513.542969 242.394531 511.621094 240.519531 507.777344 L 148.628906 308.324219 C 147.730469 306.355469 147.683594 304.769531 148.488281 303.558594 C 149.300781 302.351562 150.730469 301.746094 152.785156 301.746094 L 192.363281 301.746094 C 195.488281 301.746094 197.585938 303.179688 198.660156 306.042969 L 247.347656 428.371094 L 295.910156 306.042969 C 297.160156 303.179688 299.261719 301.746094 302.222656 301.746094 Z M 302.222656 301.746094 " fill-opacity="1" fill-rule="nonzero"/><path fill="#ffffff" d="M 450.5625 513.011719 C 439.03125 513.011719 428.03125 511.597656 417.5625 508.777344 C 407.101562 505.96875 397.828125 501.613281 389.734375 495.714844 C 381.640625 489.808594 375.269531 482.207031 370.625 472.902344 C 365.976562 463.601562 363.65625 452.425781 363.65625 439.371094 L 363.65625 307.246094 C 363.65625 303.582031 365.488281 301.746094 369.15625 301.746094 L 406.171875 301.746094 C 409.835938 301.746094 411.671875 303.582031 411.671875 307.246094 L 411.671875 428.230469 C 411.671875 438.335938 413.191406 446.476562 416.234375 452.652344 C 419.273438 458.820312 423.703125 463.316406 429.515625 466.136719 C 435.328125 468.949219 442.34375 470.355469 450.5625 470.355469 C 458.882812 470.355469 465.953125 468.949219 471.765625 466.136719 C 477.578125 463.316406 481.976562 458.820312 484.96875 452.652344 C 487.96875 446.476562 489.46875 438.335938 489.46875 428.230469 L 489.46875 307.246094 C 489.46875 303.582031 491.300781 301.746094 494.96875 301.746094 L 531.984375 301.746094 C 535.648438 301.746094 537.484375 303.582031 537.484375 307.246094 L 537.484375 439.371094 C 537.484375 452.425781 535.203125 463.601562 530.640625 472.902344 C 526.085938 482.207031 519.804688 489.808594 511.796875 495.714844 C 503.796875 501.613281 494.539062 505.96875 484.03125 508.777344 C 473.53125 511.597656 462.375 513.011719 450.5625 513.011719 Z M 450.5625 513.011719 " fill-opacity="1" fill-rule="nonzero"/><path fill="#ffffff" d="M 696.035156 431.855469 L 733.191406 501.199219 C 734.167969 503.167969 734.277344 504.757812 733.519531 505.964844 C 732.769531 507.175781 731.363281 507.777344 729.300781 507.777344 L 688.253906 507.777344 C 685.398438 507.777344 683.300781 506.394531 681.957031 503.621094 L 649.363281 439.105469 L 617.972656 439.105469 L 617.972656 502.277344 C 617.972656 505.945312 616.136719 507.777344 612.472656 507.777344 L 576.394531 507.777344 C 572.726562 507.777344 570.894531 505.945312 570.894531 502.277344 L 570.894531 307.246094 C 570.894531 303.582031 572.726562 301.746094 576.394531 301.746094 L 653.253906 301.746094 C 667.648438 301.746094 679.695312 303.472656 689.394531 306.917969 C 699.101562 310.355469 706.863281 315.117188 712.675781 321.199219 C 718.488281 327.285156 722.664062 334.417969 725.207031 342.605469 C 727.757812 350.785156 729.035156 359.652344 729.035156 369.214844 C 729.035156 384.332031 726.195312 397.230469 720.519531 407.917969 C 714.839844 418.605469 706.679688 426.585938 696.035156 431.855469 Z M 645.878906 342.261719 L 617.972656 342.261719 L 617.972656 398.589844 L 645.878906 398.589844 C 647.929688 398.589844 650.476562 398.503906 653.519531 398.324219 C 656.558594 398.148438 659.757812 397.613281 663.113281 396.714844 C 666.464844 395.820312 669.597656 394.347656 672.503906 392.292969 C 675.410156 390.230469 677.777344 387.367188 679.613281 383.699219 C 681.445312 380.035156 682.363281 375.339844 682.363281 369.621094 C 682.363281 364.164062 681.507812 359.714844 679.800781 356.277344 C 678.101562 352.832031 675.886719 350.148438 673.160156 348.230469 C 670.441406 346.304688 667.445312 344.917969 664.175781 344.074219 C 660.914062 343.222656 657.695312 342.707031 654.519531 342.527344 C 651.351562 342.351562 648.472656 342.261719 645.878906 342.261719 Z M 645.878906 342.261719 " fill-opacity="1" fill-rule="nonzero"/><path fill="#0a0e17" d="M 850.433594 301.746094 L 942.308594 501.199219 C 943.121094 503.167969 943.144531 504.757812 942.386719 505.964844 C 941.625 507.175781 940.214844 507.777344 938.152344 507.777344 L 898.589844 507.777344 C 895.453125 507.777344 893.347656 506.347656 892.277344 503.480469 L 883.167969 480.683594 L 804.027344 480.683594 L 794.902344 503.480469 C 793.828125 506.347656 791.730469 507.777344 788.605469 507.777344 L 749.027344 507.777344 C 747.058594 507.777344 745.671875 507.175781 744.871094 505.964844 C 744.066406 504.757812 744.113281 503.167969 745.011719 501.199219 L 836.886719 301.746094 C 838.675781 297.820312 840.910156 295.855469 843.589844 295.855469 C 846.277344 295.855469 848.558594 297.820312 850.433594 301.746094 Z M 843.589844 381.152344 L 818.371094 444.605469 L 868.949219 444.605469 Z M 843.589844 381.152344 " fill-opacity="1" fill-rule="nonzero"/><path fill="#ffffff" d="M 1036.226562 507.777344 L 1000.007812 507.777344 C 996.339844 507.777344 994.507812 505.945312 994.507812 502.277344 L 994.507812 342.261719 L 951.585938 342.261719 C 947.917969 342.261719 946.085938 340.429688 946.085938 336.761719 L 946.085938 307.246094 C 946.085938 303.582031 947.917969 301.746094 951.585938 301.746094 L 1084.648438 301.746094 C 1088.3125 301.746094 1090.148438 303.582031 1090.148438 307.246094 L 1090.148438 336.761719 C 1090.148438 340.429688 1088.3125 342.261719 1084.648438 342.261719 L 1041.726562 342.261719 L 1041.726562 502.277344 C 1041.726562 505.945312 1039.890625 507.777344 1036.226562 507.777344 Z M 1036.226562 507.777344 " fill-opacity="1" fill-rule="nonzero"/><path fill="#0a0e17" d="M 1199.476562 301.746094 L 1291.351562 501.199219 C 1292.164062 503.167969 1292.1875 504.757812 1291.429688 505.964844 C 1290.667969 507.175781 1289.257812 507.777344 1287.195312 507.777344 L 1247.632812 507.777344 C 1244.496094 507.777344 1242.390625 506.347656 1241.320312 503.480469 L 1232.210938 480.683594 L 1153.070312 480.683594 L 1143.945312 503.480469 C 1142.871094 506.347656 1140.773438 507.777344 1137.648438 507.777344 L 1098.070312 507.777344 C 1096.101562 507.777344 1094.714844 507.175781 1093.914062 505.964844 C 1093.109375 504.757812 1093.15625 503.167969 1094.054688 501.199219 L 1185.929688 301.746094 C 1187.71875 297.820312 1189.953125 295.855469 1192.632812 295.855469 C 1195.320312 295.855469 1197.601562 297.820312 1199.476562 301.746094 Z M 1192.632812 381.152344 L 1167.414062 444.605469 L 1217.992188 444.605469 Z M 1192.632812 381.152344 " fill-opacity="1" fill-rule="nonzero"/><path fill="#ffffff" d="M 809.773438 508.714844 L 770.210938 508.714844 C 768.160156 508.714844 766.710938 508.109375 765.867188 506.902344 C 765.015625 505.691406 765.078125 504.105469 766.054688 502.136719 L 857.929688 302.683594 C 859.722656 298.839844 861.960938 296.917969 864.648438 296.917969 C 867.328125 296.917969 869.601562 298.839844 871.476562 302.683594 L 963.367188 502.136719 C 964.265625 504.105469 964.3125 505.691406 963.507812 506.902344 C 962.695312 508.109375 961.265625 508.714844 959.210938 508.714844 L 919.632812 508.714844 C 916.507812 508.714844 914.410156 507.28125 913.335938 504.417969 L 864.648438 382.089844 L 816.085938 504.417969 C 814.835938 507.28125 812.734375 508.714844 809.773438 508.714844 Z M 809.773438 508.714844 " fill-opacity="1" fill-rule="nonzero"/><path fill="#ffffff" d="M 1124.570312 508.800781 L 1085.007812 508.800781 C 1082.957031 508.800781 1081.507812 508.195312 1080.664062 506.988281 C 1079.8125 505.777344 1079.875 504.191406 1080.851562 502.222656 L 1172.726562 302.769531 C 1174.519531 298.925781 1176.757812 297.003906 1179.445312 297.003906 C 1182.125 297.003906 1184.398438 298.925781 1186.273438 302.769531 L 1278.164062 502.222656 C 1279.0625 504.191406 1279.109375 505.777344 1278.304688 506.988281 C 1277.492188 508.195312 1276.0625 508.800781 1274.007812 508.800781 L 1234.429688 508.800781 C 1231.304688 508.800781 1229.207031 507.367188 1228.132812 504.503906 L 1179.445312 382.175781 L 1130.882812 504.503906 C 1129.632812 507.367188 1127.53125 508.800781 1124.570312 508.800781 Z M 1124.570312 508.800781 " fill-opacity="1" fill-rule="nonzero"/></svg>
