<svg xmlns="http://www.w3.org/2000/svg" xmlns:xlink="http://www.w3.org/1999/xlink" width="1000" zoomAndPan="magnify" viewBox="0 0 750 165.12" height="210" preserveAspectRatio="xMidYMid meet" version="1.0"><defs><g/><clipPath id="37194e8c56"><path d="M 8 0 L 742 0 L 742 156.664062 L 8 156.664062 Z M 8 0 " clip-rule="nonzero"/></clipPath><clipPath id="d306620874"><path d="M 0.433594 0 L 733 0 L 733 156.664062 L 0.433594 156.664062 Z M 0.433594 0 " clip-rule="nonzero"/></clipPath><clipPath id="033f7cfdc3"><rect x="0" width="733" y="0" height="157"/></clipPath><clipPath id="1bebd6a94d"><path d="M 405 0 L 543 0 L 543 156.664062 L 405 156.664062 Z M 405 0 " clip-rule="nonzero"/></clipPath><clipPath id="5a08290ba5"><rect x="0" width="138" y="0" height="157"/></clipPath><clipPath id="8f73f36f91"><path d="M 596 0 L 733.328125 0 L 733.328125 156.664062 L 596 156.664062 Z M 596 0 " clip-rule="nonzero"/></clipPath><clipPath id="70f0d3cb92"><rect x="0" width="138" y="0" height="157"/></clipPath><clipPath id="fe6820dc75"><rect x="0" width="734" y="0" height="157"/></clipPath></defs><g clip-path="url(#37194e8c56)"><g transform="matrix(1, 0, 0, 1, 8, -0.000000000000000899)"><g clip-path="url(#fe6820dc75)"><g clip-path="url(#d306620874)"><g transform="matrix(1, 0, 0, 1, 0, -0.000000000000000899)"><g clip-path="url(#033f7cfdc3)"><g fill="#ffffff" fill-opacity="1"><g transform="translate(0.585072, 146.204171)"><g><path d="M 104.375 -136.09375 L 130.515625 -136.09375 C 131.867188 -136.09375 132.828125 -135.691406 133.390625 -134.890625 C 133.953125 -134.097656 133.90625 -133.050781 133.25 -131.75 L 72.5625 0 C 71.382812 2.539062 69.90625 3.8125 68.125 3.8125 C 66.351562 3.8125 64.847656 2.539062 63.609375 0 L 2.921875 -131.75 C 2.328125 -133.050781 2.296875 -134.097656 2.828125 -134.890625 C 3.359375 -135.691406 4.304688 -136.09375 5.671875 -136.09375 L 31.8125 -136.09375 C 33.875 -136.09375 35.257812 -135.144531 35.96875 -133.25 L 68.140625 -52.453125 L 100.203125 -133.25 C 101.035156 -135.144531 102.425781 -136.09375 104.375 -136.09375 Z M 104.375 -136.09375 "/></g></g><g transform="translate(136.941318, 146.204171)"><g><path d="M 69.640625 3.453125 C 62.015625 3.453125 54.75 2.519531 47.84375 0.65625 C 40.9375 -1.195312 34.804688 -4.070312 29.453125 -7.96875 C 24.109375 -11.875 19.898438 -16.894531 16.828125 -23.03125 C 13.765625 -29.175781 12.234375 -36.5625 12.234375 -45.1875 L 12.234375 -132.453125 C 12.234375 -134.878906 13.441406 -136.09375 15.859375 -136.09375 L 40.3125 -136.09375 C 42.738281 -136.09375 43.953125 -134.878906 43.953125 -132.453125 L 43.953125 -52.546875 C 43.953125 -45.867188 44.953125 -40.488281 46.953125 -36.40625 C 48.960938 -32.332031 51.882812 -29.363281 55.71875 -27.5 C 59.5625 -25.644531 64.203125 -24.71875 69.640625 -24.71875 C 75.128906 -24.71875 79.789062 -25.644531 83.625 -27.5 C 87.46875 -29.363281 90.378906 -32.332031 92.359375 -36.40625 C 94.335938 -40.488281 95.328125 -45.867188 95.328125 -52.546875 L 95.328125 -132.453125 C 95.328125 -134.878906 96.539062 -136.09375 98.96875 -136.09375 L 123.421875 -136.09375 C 125.835938 -136.09375 127.046875 -134.878906 127.046875 -132.453125 L 127.046875 -45.1875 C 127.046875 -36.5625 125.539062 -29.175781 122.53125 -23.03125 C 119.519531 -16.894531 115.367188 -11.875 110.078125 -7.96875 C 104.796875 -4.070312 98.679688 -1.195312 91.734375 0.65625 C 84.796875 2.519531 77.429688 3.453125 69.640625 3.453125 Z M 69.640625 3.453125 "/></g></g><g transform="translate(276.221383, 146.204171)"><g><path d="M 96.125 -50.140625 L 120.671875 -4.34375 C 121.316406 -3.039062 121.390625 -1.988281 120.890625 -1.1875 C 120.390625 -0.394531 119.460938 0 118.109375 0 L 91 0 C 89.101562 0 87.710938 -0.914062 86.828125 -2.75 L 65.296875 -45.359375 L 44.5625 -45.359375 L 44.5625 -3.625 C 44.5625 -1.207031 43.351562 0 40.9375 0 L 17.09375 0 C 14.675781 0 13.46875 -1.207031 13.46875 -3.625 L 13.46875 -132.453125 C 13.46875 -134.878906 14.675781 -136.09375 17.09375 -136.09375 L 67.875 -136.09375 C 77.375 -136.09375 85.328125 -134.953125 91.734375 -132.671875 C 98.148438 -130.398438 103.273438 -127.253906 107.109375 -123.234375 C 110.953125 -119.222656 113.710938 -114.515625 115.390625 -109.109375 C 117.078125 -103.703125 117.921875 -97.84375 117.921875 -91.53125 C 117.921875 -81.539062 116.046875 -73.015625 112.296875 -65.953125 C 108.546875 -58.898438 103.15625 -53.628906 96.125 -50.140625 Z M 63 -109.328125 L 44.5625 -109.328125 L 44.5625 -72.125 L 63 -72.125 C 64.351562 -72.125 66.035156 -72.179688 68.046875 -72.296875 C 70.054688 -72.410156 72.164062 -72.765625 74.375 -73.359375 C 76.59375 -73.953125 78.660156 -74.925781 80.578125 -76.28125 C 82.503906 -77.644531 84.070312 -79.535156 85.28125 -81.953125 C 86.488281 -84.378906 87.09375 -87.484375 87.09375 -91.265625 C 87.09375 -94.859375 86.53125 -97.789062 85.40625 -100.0625 C 84.289062 -102.34375 82.832031 -104.117188 81.03125 -105.390625 C 79.226562 -106.660156 77.25 -107.578125 75.09375 -108.140625 C 72.9375 -108.703125 70.804688 -109.039062 68.703125 -109.15625 C 66.609375 -109.269531 64.707031 -109.328125 63 -109.328125 Z M 63 -109.328125 "/></g></g></g><g fill="#ffffff" fill-opacity="1"><g transform="translate(405.490105, 146.204171)"><g/></g><g transform="translate(461.840056, 146.204171)"><g/></g></g><g fill="#ffffff" fill-opacity="1"><g transform="translate(518.195949, 146.204171)"><g><path d="M 62.734375 0 L 38.8125 0 C 36.382812 0 35.171875 -1.207031 35.171875 -3.625 L 35.171875 -109.328125 L 6.828125 -109.328125 C 4.398438 -109.328125 3.1875 -110.539062 3.1875 -112.96875 L 3.1875 -132.453125 C 3.1875 -134.878906 4.398438 -136.09375 6.828125 -136.09375 L 94.71875 -136.09375 C 97.132812 -136.09375 98.34375 -134.878906 98.34375 -132.453125 L 98.34375 -112.96875 C 98.34375 -110.539062 97.132812 -109.328125 94.71875 -109.328125 L 66.359375 -109.328125 L 66.359375 -3.625 C 66.359375 -1.207031 65.148438 0 62.734375 0 Z M 62.734375 0 "/></g></g></g><g fill="#ffffff" fill-opacity="1"><g transform="translate(619.909877, 146.204171)"><g/></g><g transform="translate(676.259828, 146.204171)"><g/></g></g></g></g></g><g clip-path="url(#1bebd6a94d)"><g transform="matrix(1, 0, 0, 1, 405, -0.000000000000000899)"><g clip-path="url(#5a08290ba5)"><g fill="#ffffff" fill-opacity="1"><g transform="translate(136.946722, 10.789425)"><g><path d="M -104.375 136.09375 L -130.515625 136.09375 C -131.867188 136.09375 -132.828125 135.691406 -133.390625 134.890625 C -133.953125 134.097656 -133.90625 133.050781 -133.25 131.75 L -72.5625 0 C -71.382812 -2.539062 -69.90625 -3.8125 -68.125 -3.8125 C -66.351562 -3.8125 -64.847656 -2.539062 -63.609375 0 L -2.921875 131.75 C -2.328125 133.050781 -2.296875 134.097656 -2.828125 134.890625 C -3.359375 135.691406 -4.304688 136.09375 -5.671875 136.09375 L -31.8125 136.09375 C -33.875 136.09375 -35.257812 135.144531 -35.96875 133.25 L -68.140625 52.453125 L -100.203125 133.25 C -101.035156 135.144531 -102.425781 136.09375 -104.375 136.09375 Z M -104.375 136.09375 "/></g></g></g></g></g></g><g clip-path="url(#8f73f36f91)"><g transform="matrix(1, 0, 0, 1, 596, -0.000000000000000899)"><g clip-path="url(#70f0d3cb92)"><g fill="#ffffff" fill-opacity="1"><g transform="translate(136.835163, 10.91963)"><g><path d="M -104.375 136.09375 L -130.515625 136.09375 C -131.867188 136.09375 -132.828125 135.691406 -133.390625 134.890625 C -133.953125 134.097656 -133.90625 133.050781 -133.25 131.75 L -72.5625 0 C -71.382812 -2.539062 -69.90625 -3.8125 -68.125 -3.8125 C -66.351562 -3.8125 -64.847656 -2.539062 -63.609375 0 L -2.921875 131.75 C -2.328125 133.050781 -2.296875 134.097656 -2.828125 134.890625 C -3.359375 135.691406 -4.304688 136.09375 -5.671875 136.09375 L -31.8125 136.09375 C -33.875 136.09375 -35.257812 135.144531 -35.96875 133.25 L -68.140625 52.453125 L -100.203125 133.25 C -101.035156 135.144531 -102.425781 136.09375 -104.375 136.09375 Z M -104.375 136.09375 "/></g></g></g></g></g></g></g></g></g></svg>