<svg xmlns="http://www.w3.org/2000/svg" xmlns:xlink="http://www.w3.org/1999/xlink" width="1920" zoomAndPan="magnify" viewBox="0 0 1440 809.999993" height="1080" preserveAspectRatio="xMidYMid meet" version="1.0"><rect x="-144" width="1728" fill="#ffffff" y="-80.999999" height="971.999992" fill-opacity="1"/><rect x="-144" width="1728" fill="#ffffff" y="-80.999999" height="971.999992" fill-opacity="1"/><path fill="#0a0e17" d="M 302.25 299.765625 L 341.8125 299.765625 C 343.863281 299.765625 345.3125 300.371094 346.15625 301.578125 C 347.007812 302.789062 346.945312 304.375 345.96875 306.34375 L 254.09375 505.796875 C 252.300781 509.640625 250.0625 511.5625 247.375 511.5625 C 244.695312 511.5625 242.421875 509.640625 240.546875 505.796875 L 148.65625 306.34375 C 147.757812 304.375 147.710938 302.789062 148.515625 301.578125 C 149.328125 300.371094 150.757812 299.765625 152.8125 299.765625 L 192.390625 299.765625 C 195.515625 299.765625 197.613281 301.199219 198.6875 304.0625 L 247.375 426.390625 L 295.9375 304.0625 C 297.1875 301.199219 299.289062 299.765625 302.25 299.765625 Z M 302.25 299.765625 " fill-opacity="1" fill-rule="nonzero"/><path fill="#0a0e17" d="M 450.578125 511.03125 C 439.046875 511.03125 428.046875 509.617188 417.578125 506.796875 C 407.117188 503.988281 397.84375 499.632812 389.75 493.734375 C 381.65625 487.828125 375.285156 480.226562 370.640625 470.921875 C 365.992188 461.621094 363.671875 450.445312 363.671875 437.390625 L 363.671875 305.265625 C 363.671875 301.601562 365.503906 299.765625 369.171875 299.765625 L 406.1875 299.765625 C 409.851562 299.765625 411.6875 301.601562 411.6875 305.265625 L 411.6875 426.25 C 411.6875 436.355469 413.207031 444.496094 416.25 450.671875 C 419.289062 456.839844 423.71875 461.335938 429.53125 464.15625 C 435.34375 466.96875 442.359375 468.375 450.578125 468.375 C 458.898438 468.375 465.96875 466.96875 471.78125 464.15625 C 477.59375 461.335938 481.992188 456.839844 484.984375 450.671875 C 487.984375 444.496094 489.484375 436.355469 489.484375 426.25 L 489.484375 305.265625 C 489.484375 301.601562 491.316406 299.765625 494.984375 299.765625 L 532 299.765625 C 535.664062 299.765625 537.5 301.601562 537.5 305.265625 L 537.5 437.390625 C 537.5 450.445312 535.21875 461.621094 530.65625 470.921875 C 526.101562 480.226562 519.820312 487.828125 511.8125 493.734375 C 503.8125 499.632812 494.554688 503.988281 484.046875 506.796875 C 473.546875 509.617188 462.390625 511.03125 450.578125 511.03125 Z M 450.578125 511.03125 " fill-opacity="1" fill-rule="nonzero"/><path fill="#0a0e17" d="M 696.035156 429.875 L 733.191406 499.21875 C 734.167969 501.1875 734.277344 502.777344 733.519531 503.984375 C 732.769531 505.195312 731.363281 505.796875 729.300781 505.796875 L 688.253906 505.796875 C 685.398438 505.796875 683.300781 504.414062 681.957031 501.640625 L 649.363281 437.125 L 617.972656 437.125 L 617.972656 500.296875 C 617.972656 503.964844 616.136719 505.796875 612.472656 505.796875 L 576.394531 505.796875 C 572.726562 505.796875 570.894531 503.964844 570.894531 500.296875 L 570.894531 305.265625 C 570.894531 301.601562 572.726562 299.765625 576.394531 299.765625 L 653.253906 299.765625 C 667.648438 299.765625 679.695312 301.492188 689.394531 304.9375 C 699.101562 308.375 706.863281 313.136719 712.675781 319.21875 C 718.488281 325.304688 722.664062 332.4375 725.207031 340.625 C 727.757812 348.804688 729.035156 357.671875 729.035156 367.234375 C 729.035156 382.351562 726.195312 395.25 720.519531 405.9375 C 714.839844 416.625 706.679688 424.605469 696.035156 429.875 Z M 645.878906 340.28125 L 617.972656 340.28125 L 617.972656 396.609375 L 645.878906 396.609375 C 647.929688 396.609375 650.476562 396.523438 653.519531 396.34375 C 656.558594 396.167969 659.757812 395.632812 663.113281 394.734375 C 666.464844 393.839844 669.597656 392.367188 672.503906 390.3125 C 675.410156 388.25 677.777344 385.386719 679.613281 381.71875 C 681.445312 378.054688 682.363281 373.359375 682.363281 367.640625 C 682.363281 362.183594 681.507812 357.734375 679.800781 354.296875 C 678.101562 350.851562 675.886719 348.167969 673.160156 346.25 C 670.441406 344.324219 667.445312 342.9375 664.175781 342.09375 C 660.914062 341.242188 657.695312 340.726562 654.519531 340.546875 C 651.351562 340.371094 648.472656 340.28125 645.878906 340.28125 Z M 645.878906 340.28125 " fill-opacity="1" fill-rule="nonzero"/><path fill="#ffffff" d="M 850.414062 299.765625 L 942.289062 499.21875 C 943.101562 501.1875 943.125 502.777344 942.367188 503.984375 C 941.605469 505.195312 940.195312 505.796875 938.132812 505.796875 L 898.570312 505.796875 C 895.433594 505.796875 893.328125 504.367188 892.257812 501.5 L 883.148438 478.703125 L 804.007812 478.703125 L 794.882812 501.5 C 793.808594 504.367188 791.710938 505.796875 788.585938 505.796875 L 749.007812 505.796875 C 747.039062 505.796875 745.652344 505.195312 744.851562 503.984375 C 744.046875 502.777344 744.09375 501.1875 744.992188 499.21875 L 836.867188 299.765625 C 838.65625 295.839844 840.890625 293.875 843.570312 293.875 C 846.257812 293.875 848.539062 295.839844 850.414062 299.765625 Z M 843.570312 379.171875 L 818.351562 442.625 L 868.929688 442.625 Z M 843.570312 379.171875 " fill-opacity="1" fill-rule="nonzero"/><path fill="#0a0e17" d="M 1036.195312 505.796875 L 999.976562 505.796875 C 996.308594 505.796875 994.476562 503.964844 994.476562 500.296875 L 994.476562 340.28125 L 951.554688 340.28125 C 947.886719 340.28125 946.054688 338.449219 946.054688 334.78125 L 946.054688 305.265625 C 946.054688 301.601562 947.886719 299.765625 951.554688 299.765625 L 1084.617188 299.765625 C 1088.28125 299.765625 1090.117188 301.601562 1090.117188 305.265625 L 1090.117188 334.78125 C 1090.117188 338.449219 1088.28125 340.28125 1084.617188 340.28125 L 1041.695312 340.28125 L 1041.695312 500.296875 C 1041.695312 503.964844 1039.859375 505.796875 1036.195312 505.796875 Z M 1036.195312 505.796875 " fill-opacity="1" fill-rule="nonzero"/><path fill="#ffffff" d="M 1199.429688 299.765625 L 1291.304688 499.21875 C 1292.117188 501.1875 1292.140625 502.777344 1291.382812 503.984375 C 1290.621094 505.195312 1289.210938 505.796875 1287.148438 505.796875 L 1247.585938 505.796875 C 1244.449219 505.796875 1242.34375 504.367188 1241.273438 501.5 L 1232.164062 478.703125 L 1153.023438 478.703125 L 1143.898438 501.5 C 1142.824219 504.367188 1140.726562 505.796875 1137.601562 505.796875 L 1098.023438 505.796875 C 1096.054688 505.796875 1094.667969 505.195312 1093.867188 503.984375 C 1093.0625 502.777344 1093.109375 501.1875 1094.007812 499.21875 L 1185.882812 299.765625 C 1187.671875 295.839844 1189.90625 293.875 1192.585938 293.875 C 1195.273438 293.875 1197.554688 295.839844 1199.429688 299.765625 Z M 1192.585938 379.171875 L 1167.367188 442.625 L 1217.945312 442.625 Z M 1192.585938 379.171875 " fill-opacity="1" fill-rule="nonzero"/><path fill="#0a0e17" d="M 809.773438 508.714844 L 770.210938 508.714844 C 768.160156 508.714844 766.710938 508.109375 765.867188 506.902344 C 765.015625 505.691406 765.078125 504.105469 766.054688 502.136719 L 857.929688 302.683594 C 859.722656 298.839844 861.960938 296.917969 864.648438 296.917969 C 867.328125 296.917969 869.601562 298.839844 871.476562 302.683594 L 963.367188 502.136719 C 964.265625 504.105469 964.3125 505.691406 963.507812 506.902344 C 962.695312 508.109375 961.265625 508.714844 959.210938 508.714844 L 919.632812 508.714844 C 916.507812 508.714844 914.410156 507.28125 913.335938 504.417969 L 864.648438 382.089844 L 816.085938 504.417969 C 814.835938 507.28125 812.734375 508.714844 809.773438 508.714844 Z M 809.773438 508.714844 " fill-opacity="1" fill-rule="nonzero"/><path fill="#0a0e17" d="M 1124.570312 508.800781 L 1085.007812 508.800781 C 1082.957031 508.800781 1081.507812 508.195312 1080.664062 506.988281 C 1079.8125 505.777344 1079.875 504.191406 1080.851562 502.222656 L 1172.726562 302.769531 C 1174.519531 298.925781 1176.757812 297.003906 1179.445312 297.003906 C 1182.125 297.003906 1184.398438 298.925781 1186.273438 302.769531 L 1278.164062 502.222656 C 1279.0625 504.191406 1279.109375 505.777344 1278.304688 506.988281 C 1277.492188 508.195312 1276.0625 508.800781 1274.007812 508.800781 L 1234.429688 508.800781 C 1231.304688 508.800781 1229.207031 507.367188 1228.132812 504.503906 L 1179.445312 382.175781 L 1130.882812 504.503906 C 1129.632812 507.367188 1127.53125 508.800781 1124.570312 508.800781 Z M 1124.570312 508.800781 " fill-opacity="1" fill-rule="nonzero"/></svg>