<svg xmlns="http://www.w3.org/2000/svg" xmlns:xlink="http://www.w3.org/1999/xlink" width="1920" zoomAndPan="magnify" viewBox="0 0 1440 809.999993" height="1080" preserveAspectRatio="xMidYMid meet" version="1.0"><defs><g/><clipPath id="3288498bc7"><rect x="0" width="209" y="0" height="345"/></clipPath><clipPath id="b3fbafab10"><rect x="0" width="209" y="0" height="345"/></clipPath></defs><g fill="#0a0e17" fill-opacity="1"><g transform="translate(165.890623, 507.778941)"><g><path d="M 158.015625 -206.03125 L 197.578125 -206.03125 C 199.628906 -206.03125 201.078125 -205.425781 201.921875 -204.21875 C 202.773438 -203.007812 202.710938 -201.421875 201.734375 -199.453125 L 109.859375 0 C 108.066406 3.84375 105.828125 5.765625 103.140625 5.765625 C 100.460938 5.765625 98.1875 3.84375 96.3125 0 L 4.421875 -199.453125 C 3.523438 -201.421875 3.476562 -203.007812 4.28125 -204.21875 C 5.09375 -205.425781 6.523438 -206.03125 8.578125 -206.03125 L 48.15625 -206.03125 C 51.28125 -206.03125 53.378906 -204.597656 54.453125 -201.734375 L 103.140625 -79.40625 L 151.703125 -201.734375 C 152.953125 -204.597656 155.054688 -206.03125 158.015625 -206.03125 Z M 158.015625 -206.03125 "/></g></g><g transform="translate(372.319877, 507.778941)"><g><path d="M 105.421875 5.234375 C 93.890625 5.234375 82.890625 3.820312 72.421875 1 C 61.960938 -1.8125 52.6875 -6.164062 44.59375 -12.0625 C 36.5 -17.96875 30.128906 -25.570312 25.484375 -34.875 C 20.835938 -44.175781 18.515625 -55.351562 18.515625 -68.40625 L 18.515625 -200.53125 C 18.515625 -204.195312 20.347656 -206.03125 24.015625 -206.03125 L 61.03125 -206.03125 C 64.695312 -206.03125 66.53125 -204.195312 66.53125 -200.53125 L 66.53125 -79.546875 C 66.53125 -69.441406 68.050781 -61.300781 71.09375 -55.125 C 74.132812 -48.957031 78.5625 -44.460938 84.375 -41.640625 C 90.1875 -38.828125 97.203125 -37.421875 105.421875 -37.421875 C 113.742188 -37.421875 120.8125 -38.828125 126.625 -41.640625 C 132.4375 -44.460938 136.835938 -48.957031 139.828125 -55.125 C 142.828125 -61.300781 144.328125 -69.441406 144.328125 -79.546875 L 144.328125 -200.53125 C 144.328125 -204.195312 146.160156 -206.03125 149.828125 -206.03125 L 186.84375 -206.03125 C 190.507812 -206.03125 192.34375 -204.195312 192.34375 -200.53125 L 192.34375 -68.40625 C 192.34375 -55.351562 190.0625 -44.175781 185.5 -34.875 C 180.945312 -25.570312 174.664062 -17.96875 166.65625 -12.0625 C 158.65625 -6.164062 149.398438 -1.8125 138.890625 1 C 128.390625 3.820312 117.234375 5.234375 105.421875 5.234375 Z M 105.421875 5.234375 "/></g></g><g transform="translate(583.175492, 507.778941)"><g><path d="M 145.53125 -75.921875 L 182.6875 -6.578125 C 183.664062 -4.609375 183.773438 -3.019531 183.015625 -1.8125 C 182.265625 -0.601562 180.859375 0 178.796875 0 L 137.75 0 C 134.894531 0 132.796875 -1.382812 131.453125 -4.15625 L 98.859375 -68.671875 L 67.46875 -68.671875 L 67.46875 -5.5 C 67.46875 -1.832031 65.632812 0 61.96875 0 L 25.890625 0 C 22.222656 0 20.390625 -1.832031 20.390625 -5.5 L 20.390625 -200.53125 C 20.390625 -204.195312 22.222656 -206.03125 25.890625 -206.03125 L 102.75 -206.03125 C 117.144531 -206.03125 129.191406 -204.304688 138.890625 -200.859375 C 148.597656 -197.421875 156.359375 -192.660156 162.171875 -186.578125 C 167.984375 -180.492188 172.160156 -173.359375 174.703125 -165.171875 C 177.253906 -156.992188 178.53125 -148.125 178.53125 -138.5625 C 178.53125 -123.445312 175.691406 -110.546875 170.015625 -99.859375 C 164.335938 -89.171875 156.175781 -81.191406 145.53125 -75.921875 Z M 95.375 -165.515625 L 67.46875 -165.515625 L 67.46875 -109.1875 L 95.375 -109.1875 C 97.425781 -109.1875 99.972656 -109.273438 103.015625 -109.453125 C 106.054688 -109.628906 109.253906 -110.164062 112.609375 -111.0625 C 115.960938 -111.957031 119.09375 -113.429688 122 -115.484375 C 124.90625 -117.546875 127.273438 -120.410156 129.109375 -124.078125 C 130.941406 -127.742188 131.859375 -132.4375 131.859375 -138.15625 C 131.859375 -143.613281 131.003906 -148.0625 129.296875 -151.5 C 127.597656 -154.945312 125.382812 -157.628906 122.65625 -159.546875 C 119.9375 -161.472656 116.941406 -162.859375 113.671875 -163.703125 C 110.410156 -164.554688 107.191406 -165.070312 104.015625 -165.25 C 100.847656 -165.425781 97.96875 -165.515625 95.375 -165.515625 Z M 95.375 -165.515625 "/></g></g></g><g fill="#0a0e17" fill-opacity="1"><g transform="translate(778.874967, 507.778941)"><g/></g><g transform="translate(864.182965, 507.778941)"><g/></g></g><g fill="#0a0e17" fill-opacity="1"><g transform="translate(949.499958, 507.778941)"><g><path d="M 94.96875 0 L 58.75 0 C 55.082031 0 53.25 -1.832031 53.25 -5.5 L 53.25 -165.515625 L 10.328125 -165.515625 C 6.660156 -165.515625 4.828125 -167.347656 4.828125 -171.015625 L 4.828125 -200.53125 C 4.828125 -204.195312 6.660156 -206.03125 10.328125 -206.03125 L 143.390625 -206.03125 C 147.054688 -206.03125 148.890625 -204.195312 148.890625 -200.53125 L 148.890625 -171.015625 C 148.890625 -167.347656 147.054688 -165.515625 143.390625 -165.515625 L 100.46875 -165.515625 L 100.46875 -5.5 C 100.46875 -1.832031 98.632812 0 94.96875 0 Z M 94.96875 0 "/></g></g></g><g fill="#0a0e17" fill-opacity="1"><g transform="translate(1103.484326, 507.778941)"><g/></g><g transform="translate(1188.792323, 507.778941)"><g/></g></g><g transform="matrix(1, 0, 0, 1, 778, 233)"><g clip-path="url(#3288498bc7)"><g fill="#0a0e17" fill-opacity="1"><g transform="translate(207.457108, 69.770801)"><g><path d="M -158.015625 206.03125 L -197.578125 206.03125 C -199.628906 206.03125 -201.078125 205.425781 -201.921875 204.21875 C -202.773438 203.007812 -202.710938 201.421875 -201.734375 199.453125 L -109.859375 0 C -108.066406 -3.84375 -105.828125 -5.765625 -103.140625 -5.765625 C -100.460938 -5.765625 -98.1875 -3.84375 -96.3125 0 L -4.421875 199.453125 C -3.523438 201.421875 -3.476562 203.007812 -4.28125 204.21875 C -5.09375 205.425781 -6.523438 206.03125 -8.578125 206.03125 L -48.15625 206.03125 C -51.28125 206.03125 -53.378906 204.597656 -54.453125 201.734375 L -103.140625 79.40625 L -151.703125 201.734375 C -152.953125 204.597656 -155.054688 206.03125 -158.015625 206.03125 Z M -158.015625 206.03125 "/></g></g></g></g></g><g transform="matrix(1, 0, 0, 1, 1067, 233)"><g clip-path="url(#b3fbafab10)"><g fill="#0a0e17" fill-opacity="1"><g transform="translate(207.442524, 69.96785)"><g><path d="M -158.015625 206.03125 L -197.578125 206.03125 C -199.628906 206.03125 -201.078125 205.425781 -201.921875 204.21875 C -202.773438 203.007812 -202.710938 201.421875 -201.734375 199.453125 L -109.859375 0 C -108.066406 -3.84375 -105.828125 -5.765625 -103.140625 -5.765625 C -100.460938 -5.765625 -98.1875 -3.84375 -96.3125 0 L -4.421875 199.453125 C -3.523438 201.421875 -3.476562 203.007812 -4.28125 204.21875 C -5.09375 205.425781 -6.523438 206.03125 -8.578125 206.03125 L -48.15625 206.03125 C -51.28125 206.03125 -53.378906 204.597656 -54.453125 201.734375 L -103.140625 79.40625 L -151.703125 201.734375 C -152.953125 204.597656 -155.054688 206.03125 -158.015625 206.03125 Z M -158.015625 206.03125 "/></g></g></g></g></g></svg>